# xmcd
#
# Track frame offsets: 
#        150
#        14305
#        31291
#        44388
#        65078
#        86014
#        97874
#        113332
#        129828
#        144683
#        162916
#        175366
#        186842
#        205861
#        230138
#        233628
#        245573
#
# Disc length: 3418 seconds
#
# Revision: 0
# Processed by: cddbd v1.5.2PL0 Copyright (c) Steve Scherf et al.
# Submitted via: ExactAudioCopyFreeDBPlugin 1.0
#
DISCID=e10d5811
DTITLE=Magic Sam and Shakey Jake - Live At Sylivo's
DYEAR=2013
DGENRE=Blues
TTITLE0=Juke
TTITLE1=Reconsider Baby
TTITLE2=Just Like A Fish
TTITLE3=Dirty Work Going On
TTITLE4=Rock Me Baby
TTITLE5=I've Been Down So Long
TTITLE6=I Can't Please You
TTITLE7=Just Got To Know
TTITLE8=I'm Tore Down
TTITLE9=Baby Scratch My Back
TTITLE10=Sawed Off Shotgun
TTITLE11=Backstroke
TTITLE12=All Your Love
TTITLE13=She's Nineteen Years Old
TTITLE14=Magic Sam's Interview
TTITLE15=All Your Love
TTITLE16=Magic Sam's Boogie
EXTD=
EXTT0=
EXTT1=
EXTT2=
EXTT3=
EXTT4=
EXTT5=
EXTT6=
EXTT7=
EXTT8=
EXTT9=
EXTT10=
EXTT11=
EXTT12=
EXTT13=
EXTT14=
EXTT15=
EXTT16=
PLAYORDER=
